<svg id="Capa_1" data-name="Capa 1" xmlns="http://www.w3.org/2000/svg" viewBox="0 0 512 512">
  <defs>
    <style>
      .cls-1 {
        fill: #f6fc00;
      }
    </style>
  </defs>
  <title>star</title>
  <path class="cls-1" d="M511.3,196.311a14.282,14.282,0,0,0-11.454-9.668l-159.73-22.7L268.235,19.452a14.244,14.244,0,0,0-12.715-7.881h0A14.153,14.153,0,0,0,242.8,19.557L171.872,164.47,12.142,188.22A14.282,14.282,0,0,0,.687,197.888a14.032,14.032,0,0,0,3.678,14.5L120.275,324.726l-26.8,159.1a14.263,14.263,0,0,0,13.976,16.6,13.487,13.487,0,0,0,6.62-1.681l142.6-75.557L399.7,497.907a14.51,14.51,0,0,0,6.515,1.576h0A14.262,14.262,0,0,0,420.4,485.3a11.087,11.087,0,0,0-.42-3.258L392.341,323.885,507.515,210.918A13.894,13.894,0,0,0,511.3,196.311ZM367.331,308.858a14.024,14.024,0,0,0-3.993,12.61L387.4,459.446,263.191,394.608a14.371,14.371,0,0,0-13.241,0L126.159,460.181l23.224-138.188a14.172,14.172,0,0,0-4.1-12.505L44.823,211.969l138.608-20.6a14.081,14.081,0,0,0,10.614-7.776l61.58-125.787,62.421,125.472a14.436,14.436,0,0,0,10.719,7.776l138.713,19.756Z"/>
</svg>
