<?xml version="1.0" encoding="utf-8"?>
<!-- Generator: Adobe Illustrator 21.0.2, SVG Export Plug-In . SVG Version: 6.00 Build 0)  -->
<svg version="1.1" id="Layer_1" xmlns="http://www.w3.org/2000/svg" xmlns:xlink="http://www.w3.org/1999/xlink" x="0px" y="0px"
	 viewBox="0 0 500 500" style="enable-background:new 0 0 500 500;" xml:space="preserve">
<style type="text/css">
	.st0{fill:#44C2E4;}
	.st1{fill:#E6C705;}
	.st2{fill:#E7C229;}
	.st3{fill:#3591A6;}
</style>
<g id="XMLID_1_">
	<path id="XMLID_66_" class="st1" d="M253.6,355.5c54,0,97.9-43.9,97.9-97.9c0-54-43.9-97.9-97.9-97.9c-54,0-97.9,43.9-97.9,97.9
		C155.7,311.6,199.6,355.5,253.6,355.5z"/>
	<path id="XMLID_34_" class="st1" d="M243.2,115.4c0,5.8,4.7,10.4,10.4,10.4c5.8,0,10.4-4.7,10.4-10.4V71.3
		c0-5.8-4.7-10.4-10.4-10.4c-5.8,0-10.4,4.7-10.4,10.4V115.4z"/>
	<path id="XMLID_33_" class="st1" d="M243.2,399.8V444c0,5.8,4.7,10.4,10.4,10.4c5.8,0,10.4-4.7,10.4-10.4v-44.1
		c0-5.8-4.7-10.4-10.4-10.4C247.9,389.4,243.2,394.1,243.2,399.8z"/>
	<path id="XMLID_32_" class="st1" d="M182.5,144.9c1.8,0,3.6-0.5,5.2-1.4c5-2.9,6.7-9.2,3.8-14.2L169.5,91c-2.9-5-9.3-6.7-14.2-3.8
		c-5,2.9-6.7,9.2-3.8,14.2l22.1,38.2C175.4,143,178.9,144.9,182.5,144.9z"/>
	<path id="XMLID_31_" class="st1" d="M319.5,371.8c-5,2.9-6.7,9.2-3.8,14.2l22.1,38.2c1.9,3.3,5.4,5.2,9,5.2c1.8,0,3.6-0.5,5.2-1.4
		c5-2.9,6.7-9.2,3.8-14.2l-22.1-38.2C330.9,370.6,324.5,368.9,319.5,371.8z"/>
	<path id="XMLID_30_" class="st1" d="M83.2,159.2c-2.9,5-1.2,11.4,3.8,14.2l38.2,22.1c1.6,0.9,3.4,1.4,5.2,1.4c3.6,0,7.1-1.9,9-5.2
		c2.9-5,1.2-11.4-3.8-14.2l-38.2-22.1C92.5,152.5,86.1,154.3,83.2,159.2z"/>
	<path id="XMLID_29_" class="st1" d="M420.2,341.8L382,319.7c-5-2.9-11.4-1.2-14.2,3.8c-2.9,5-1.2,11.4,3.8,14.2l38.2,22.1
		c1.6,0.9,3.4,1.4,5.2,1.4c3.6,0,7.1-1.9,9-5.2C426.9,351,425.2,344.6,420.2,341.8z"/>
	<path id="XMLID_28_" class="st1" d="M121.8,257.6c0-5.8-4.7-10.4-10.4-10.4H67.3c-5.8,0-10.4,4.7-10.4,10.4
		c0,5.8,4.7,10.4,10.4,10.4h44.1C117.2,268,121.8,263.4,121.8,257.6z"/>
	<path id="XMLID_27_" class="st1" d="M440,247.2h-44.1c-5.8,0-10.4,4.7-10.4,10.4c0,5.8,4.7,10.4,10.4,10.4H440
		c5.8,0,10.4-4.7,10.4-10.4C450.4,251.9,445.7,247.2,440,247.2z"/>
	<path id="XMLID_26_" class="st1" d="M125.3,319.7L87,341.8c-5,2.9-6.7,9.2-3.8,14.2c1.9,3.3,5.4,5.2,9,5.2c1.8,0,3.6-0.5,5.2-1.4
		l38.2-22.1c5-2.9,6.7-9.2,3.8-14.2C136.6,318.5,130.2,316.8,125.3,319.7z"/>
	<path id="XMLID_25_" class="st1" d="M409.8,155.4l-38.2,22.1c-5,2.9-6.7,9.2-3.8,14.2c1.9,3.3,5.4,5.2,9,5.2c1.8,0,3.6-0.5,5.2-1.4
		l38.2-22.1c5-2.9,6.7-9.2,3.8-14.2C421.2,154.3,414.8,152.5,409.8,155.4z"/>
	<path id="XMLID_24_" class="st1" d="M173.5,375.6l-22.1,38.2c-2.9,5-1.2,11.4,3.8,14.2c1.6,0.9,3.4,1.4,5.2,1.4
		c3.6,0,7.1-1.9,9-5.2l22.1-38.2c2.9-5,1.2-11.4-3.8-14.2C182.8,368.9,176.4,370.6,173.5,375.6z"/>
	<path id="XMLID_23_" class="st1" d="M319.5,143.5c1.6,0.9,3.4,1.4,5.2,1.4c3.6,0,7.1-1.9,9-5.2l22.1-38.2c2.9-5,1.2-11.4-3.8-14.2
		c-5-2.9-11.4-1.2-14.2,3.8l-22.1,38.2C312.8,134.2,314.5,140.6,319.5,143.5z"/>
</g>
</svg>
