<?xml version="1.0" encoding="utf-8"?>
<!-- Generator: Adobe Illustrator 21.0.2, SVG Export Plug-In . SVG Version: 6.00 Build 0)  -->
<svg version="1.1" id="Layer_1" xmlns="http://www.w3.org/2000/svg" xmlns:xlink="http://www.w3.org/1999/xlink" x="0px" y="0px"
	 viewBox="0 0 500 500" style="enable-background:new 0 0 500 500;" xml:space="preserve">
<style type="text/css">
	.st0{fill:#44C2E4;}
	.st1{fill:#E6C705;}
	.st2{fill:#E7C229;}
	.st3{fill:#3591A6;}
</style>
<g id="XMLID_1_">
	<path id="XMLID_78_" class="st2" d="M210.8,269.7c-15.3-37.3-18-77.6-7.8-116.5c6.9-26.2,19.6-50.7,36.8-71.5
		c-4.9,1.5-9.7,3.2-14.5,5.2c-83.5,34.2-123.7,130-89.5,213.5c16.6,40.5,47.9,72.1,88.2,89c40.3,16.9,84.8,17.1,125.3,0.5
		c4.8-1.9,9.4-4.1,13.9-6.5c-26.8-2.7-53.1-11.3-76.3-25.2C252.4,337.7,226.1,307,210.8,269.7z"/>
	<polygon id="XMLID_15_" class="st0" points="295.1,254.7 287.8,281.9 313.8,271.1 337.3,286.4 335.2,258.4 357,240.7 329.7,234.1 
		319.6,207.9 304.9,231.9 276.8,233.3 	"/>
	<polygon id="XMLID_14_" class="st0" points="371.7,145.5 360.9,131 356,148.4 338.9,154.1 353.9,164.2 354.1,182.2 368.3,171.1 
		385.5,176.4 379.3,159.5 389.7,144.8 	"/>
</g>
</svg>
