<?xml version="1.0" encoding="utf-8"?>
<!-- Generator: Adobe Illustrator 21.0.2, SVG Export Plug-In . SVG Version: 6.00 Build 0)  -->
<svg version="1.1" id="Layer_1" xmlns="http://www.w3.org/2000/svg" xmlns:xlink="http://www.w3.org/1999/xlink" x="0px" y="0px"
	 viewBox="0 0 500 500" style="enable-background:new 0 0 500 500;" xml:space="preserve">
<style type="text/css">
	.st0{fill:#44C2E4;}
	.st1{fill:#E6C705;}
	.st2{fill:#E7C229;}
	.st3{fill:#3591A6;}
</style>
<g id="XMLID_1_">
	<path id="XMLID_67_" class="st0" d="M441.5,239.5c-1.8-1.4-3.1-3.2-3.7-5.4c-9.5-32.9-40.2-55.9-74.5-55.9
		c-6.3,0-12.6,0.8-18.7,2.3c-4.2,1-8.6-0.6-11.1-4.2c-16-23.3-42.4-37.2-70.6-37.2c-21.4,0-42,8-57.8,22.4
		c-15.7,14.4-25.5,33.9-27.5,55c-0.3,3.6-2.6,6.8-5.9,8.4c-1,0.5-2.1,1-3.1,1.6c-0.9,0.5-1.8,0.8-2.8,1.1
		c-14.5,3.2-27.6,11.4-37,22.9c-9.6,11.8-14.7,26.2-14.7,41.5c0,36.4,29.7,65.9,66.3,65.9h220.7c36.6,0,66.3-29.6,66.3-65.9
		C467.5,271.2,458,252.1,441.5,239.5z"/>
	<path id="XMLID_65_" class="st1" d="M114.5,187.9c0,13,4.8,25.3,13.4,34.7c8.9-6.7,19-11.7,29.8-14.6c3.7-23.8,15.4-45.6,33.4-62
		c0.8-0.8,1.7-1.5,2.6-2.3c-8.1-5-17.5-7.7-27.3-7.7C137.8,136.1,114.5,159.4,114.5,187.9z"/>
	<path id="XMLID_55_" class="st1" d="M166.3,108.3c5.8,0,10.4-4.7,10.4-10.4V68.5c0-5.8-4.7-10.4-10.4-10.4
		c-5.8,0-10.4,4.7-10.4,10.4v29.3C155.9,103.6,160.6,108.3,166.3,108.3z"/>
	<path id="XMLID_54_" class="st1" d="M112.3,115.1c1.9,3.3,5.4,5.2,9,5.2c1.8,0,3.6-0.5,5.2-1.4c5-2.9,6.7-9.2,3.8-14.2l-14.7-25.4
		c-2.9-5-9.2-6.7-14.2-3.8c-5,2.9-6.7,9.2-3.8,14.2L112.3,115.1z"/>
	<path id="XMLID_53_" class="st1" d="M57.7,137.3l25.4,14.7c1.6,0.9,3.4,1.4,5.2,1.4c3.6,0,7.1-1.9,9-5.2c2.9-5,1.2-11.4-3.8-14.2
		l-25.4-14.7c-5-2.9-11.4-1.2-14.2,3.8C51,128,52.7,134.4,57.7,137.3z"/>
	<path id="XMLID_52_" class="st1" d="M46.9,198.4h29.3c5.8,0,10.4-4.7,10.4-10.4c0-5.8-4.7-10.4-10.4-10.4H46.9
		c-5.8,0-10.4,4.7-10.4,10.4C36.5,193.7,41.2,198.4,46.9,198.4z"/>
	<path id="XMLID_51_" class="st1" d="M97.3,227.8c-2.9-5-9.2-6.7-14.2-3.8l-25.4,14.7c-5,2.9-6.7,9.2-3.8,14.2
		c1.9,3.3,5.4,5.2,9,5.2c1.8,0,3.6-0.5,5.2-1.4L93.5,242C98.5,239.1,100.2,232.7,97.3,227.8z"/>
	<path id="XMLID_50_" class="st1" d="M206.1,119c1.6,0.9,3.4,1.4,5.2,1.4c3.6,0,7.1-1.9,9-5.2L235,89.8c2.9-5,1.2-11.4-3.8-14.2
		c-5-2.9-11.4-1.2-14.2,3.8l-14.7,25.4C199.5,109.7,201.2,116.1,206.1,119z"/>
</g>
</svg>
