<?xml version="1.0" encoding="utf-8"?>
<!-- Generator: Adobe Illustrator 21.0.2, SVG Export Plug-In . SVG Version: 6.00 Build 0)  -->
<svg version="1.1" id="Layer_1" xmlns="http://www.w3.org/2000/svg" xmlns:xlink="http://www.w3.org/1999/xlink" x="0px" y="0px"
	 viewBox="0 0 500 500" style="enable-background:new 0 0 500 500;" xml:space="preserve">
<style type="text/css">
	.st0{fill:#44C2E4;}
	.st1{fill:#E6C705;}
	.st2{fill:#E7C229;}
	.st3{fill:#3591A6;}
</style>
<g id="XMLID_1_">
	<path id="XMLID_76_" class="st0" d="M199.6,253.8c0-41,37.1-74.3,82.6-74.3c9.8,0,19.4,1.5,28.5,4.5c9.4-9.6,21.6-16.6,35.1-20.1
		c-12-24.3-37.2-40.4-65-40.4c-5.9,0-11.8,0.7-17.5,2.1c-4.2,1-8.6-0.6-11.1-4.2c-15-21.8-39.7-34.8-66-34.8c-20.1,0-39.2,7.4-54,21
		c-14.7,13.4-23.8,31.7-25.7,51.4c-0.3,3.6-2.6,6.8-5.9,8.4c-1,0.5-1.9,1-2.9,1.5c-0.9,0.5-1.8,0.8-2.8,1.1
		c-13.5,3-25.7,10.6-34.5,21.3c-9,11.1-13.8,24.4-13.8,38.7c0,33.9,27.8,61.5,61.9,61.5h74.3c2-12.7,7.8-24.6,16.9-34.5
		C199.6,255.9,199.6,254.9,199.6,253.8z"/>
	<path id="XMLID_38_" class="st0" d="M137.8,449.4c1,0,2-0.1,3.1-0.5c5.5-1.7,8.6-7.5,6.9-13L135.2,395c-1.7-5.5-7.5-8.6-13-6.9
		c-5.5,1.7-8.6,7.5-6.9,13l12.5,40.9C129.2,446.5,133.3,449.4,137.8,449.4z"/>
	<path id="XMLID_37_" class="st0" d="M225,449.4c1,0,2-0.1,3.1-0.5c5.5-1.7,8.6-7.5,6.9-13L222.4,395c-1.7-5.5-7.5-8.6-13-6.9
		c-5.5,1.7-8.6,7.5-6.9,13l12.5,40.9C216.4,446.5,220.5,449.4,225,449.4z"/>
	<path id="XMLID_36_" class="st0" d="M312.2,449.4c1,0,2-0.1,3.1-0.5c5.5-1.7,8.6-7.5,6.9-13L309.7,395c-1.7-5.5-7.5-8.6-13-6.9
		c-5.5,1.7-8.6,7.5-6.9,13l12.5,40.9C303.7,446.5,307.8,449.4,312.2,449.4z"/>
	<path id="XMLID_35_" class="st3" d="M424.4,255.6c-5.4-2-8.2-7.9-6.3-13.3c1.6-4.4,2.4-9.1,2.4-13.8c0-19.8-14.4-36.7-34.7-43.4
		c-6-2-12.4-3.1-19.2-3.1c-3.5,0-7,0.3-10.4,0.9c-13.9,2.4-26.3,9.4-34.4,19.8c-2.9,3.8-8,5.1-12.4,3.2c-8.6-3.7-17.8-5.6-27.4-5.6
		c-34.1,0-61.8,24-61.8,53.4c0,1.9,0.1,3.8,0.4,5.7c0.4,3.3-0.8,6.5-3.1,8.8c-6.9,6.6-11.5,14.6-13.6,23.2
		c-0.8,3.4-1.3,6.8-1.3,10.3c0,3.6,0.5,7.1,1.3,10.5C209.7,335,233,352,260.8,352H402c32,0,58.1-22.5,58.1-50.2
		C460,281.6,446,263.4,424.4,255.6z"/>
</g>
</svg>
