<?xml version="1.0" encoding="utf-8"?>
<!-- Generator: Adobe Illustrator 21.0.2, SVG Export Plug-In . SVG Version: 6.00 Build 0)  -->
<svg version="1.1" id="Layer_1" xmlns="http://www.w3.org/2000/svg" xmlns:xlink="http://www.w3.org/1999/xlink" x="0px" y="0px"
	 viewBox="0 0 500 500" style="enable-background:new 0 0 500 500;" xml:space="preserve">
<style type="text/css">
	.st0{fill:#44C2E4;}
	.st1{fill:#E6C705;}
	.st2{fill:#E7C229;}
	.st3{fill:#3591A6;}
</style>
<g id="XMLID_1_">
	<path id="XMLID_80_" class="st1" d="M106.5,183.1c0,13,4.8,25.3,13.4,34.7c8.9-6.7,19-11.7,29.8-14.6c3.7-23.8,15.4-45.6,33.4-62
		c0.8-0.8,1.7-1.5,2.6-2.3c-8.1-5-17.5-7.7-27.3-7.7C129.7,131.2,106.5,154.5,106.5,183.1z"/>
	<path id="XMLID_64_" class="st0" d="M433.4,234.6c-1.8-1.4-3.1-3.2-3.7-5.4c-9.5-32.9-40.2-55.9-74.5-55.9
		c-6.3,0-12.6,0.8-18.7,2.3c-4.2,1-8.6-0.6-11.1-4.2c-16-23.3-42.4-37.2-70.6-37.2c-21.4,0-42,8-57.8,22.4
		c-15.7,14.4-25.5,33.9-27.5,55c-0.3,3.6-2.6,6.8-5.9,8.4c-1,0.5-2.1,1-3.1,1.6c-0.9,0.5-1.8,0.8-2.8,1.1
		c-14.5,3.2-27.6,11.4-37,22.9c-9.6,11.8-14.7,26.2-14.7,41.5c0,36.4,29.7,65.9,66.3,65.9h220.7c36.6,0,66.3-29.6,66.3-65.9
		C459.4,266.3,449.9,247.2,433.4,234.6z"/>
	<path id="XMLID_49_" class="st0" d="M201.8,462c1,0,2-0.1,3.1-0.5c5.5-1.7,8.6-7.5,6.9-13l-12.5-40.9c-1.7-5.5-7.5-8.6-13-6.9
		c-5.5,1.7-8.6,7.5-6.9,13l12.5,40.9C193.2,459.1,197.3,462,201.8,462z"/>
	<path id="XMLID_48_" class="st0" d="M289,462c1,0,2-0.1,3.1-0.5c5.5-1.7,8.6-7.5,6.9-13l-12.5-40.9c-1.7-5.5-7.5-8.6-13-6.9
		c-5.5,1.7-8.6,7.5-6.9,13l12.5,40.9C280.4,459.1,284.6,462,289,462z"/>
	<path id="XMLID_47_" class="st0" d="M376.3,462c1,0,2-0.1,3.1-0.5c5.5-1.7,8.6-7.5,6.9-13l-12.5-40.9c-1.7-5.5-7.5-8.6-13-6.9
		c-5.5,1.7-8.6,7.5-6.9,13l12.5,40.9C367.7,459.1,371.8,462,376.3,462z"/>
	<path id="XMLID_46_" class="st1" d="M147.8,63.7V93c0,5.8,4.7,10.4,10.4,10.4c5.8,0,10.4-4.7,10.4-10.4V63.7
		c0-5.8-4.7-10.4-10.4-10.4C152.5,53.3,147.8,57.9,147.8,63.7z"/>
	<path id="XMLID_45_" class="st1" d="M113.2,115.5c1.8,0,3.6-0.5,5.2-1.4c5-2.9,6.7-9.2,3.8-14.2l-14.7-25.4
		c-2.9-5-9.2-6.7-14.2-3.8c-5,2.9-6.7,9.2-3.8,14.2l14.7,25.4C106.1,113.6,109.6,115.5,113.2,115.5z"/>
	<path id="XMLID_44_" class="st1" d="M85.5,129l-25.4-14.7c-5-2.9-11.4-1.2-14.2,3.8c-2.9,5-1.2,11.4,3.8,14.2L75.1,147
		c1.6,0.9,3.4,1.4,5.2,1.4c3.6,0,7.1-1.9,9-5.2C92.2,138.3,90.5,131.9,85.5,129z"/>
	<path id="XMLID_43_" class="st1" d="M78.6,183.1c0-5.8-4.7-10.4-10.4-10.4H38.9c-5.8,0-10.4,4.7-10.4,10.4
		c0,5.8,4.7,10.4,10.4,10.4h29.3C73.9,193.5,78.6,188.8,78.6,183.1z"/>
	<path id="XMLID_42_" class="st1" d="M85.5,237.1c5-2.9,6.7-9.2,3.8-14.2c-2.9-5-9.2-6.7-14.2-3.8l-25.4,14.7
		c-5,2.9-6.7,9.2-3.8,14.2c1.9,3.3,5.4,5.2,9,5.2c1.8,0,3.6-0.5,5.2-1.4L85.5,237.1z"/>
	<path id="XMLID_41_" class="st1" d="M198.1,114.1c1.6,0.9,3.4,1.4,5.2,1.4c3.6,0,7.1-1.9,9-5.2L227,84.9c2.9-5,1.2-11.4-3.8-14.2
		c-5-2.9-11.4-1.2-14.2,3.8l-14.7,25.4C191.4,104.8,193.1,111.2,198.1,114.1z"/>
</g>
</svg>
