<?xml version="1.0" encoding="utf-8"?>
<!-- Generator: Adobe Illustrator 21.0.2, SVG Export Plug-In . SVG Version: 6.00 Build 0)  -->
<svg version="1.1" id="Layer_1" xmlns="http://www.w3.org/2000/svg" xmlns:xlink="http://www.w3.org/1999/xlink" x="0px" y="0px"
	 viewBox="0 0 500 500" style="enable-background:new 0 0 500 500;" xml:space="preserve">
<style type="text/css">
	.st0{fill:#44C2E4;}
	.st1{fill:#E6C705;}
	.st2{fill:#E7C229;}
	.st3{fill:#3591A6;}
</style>
<g id="XMLID_1_">
	<path id="XMLID_69_" class="st0" d="M170.9,317.6l46.4-136.5h58.6l-34.2,92.2h70.8l-43.1,65.8h82.7c36.6,0,66.3-29.6,66.3-65.9
		c0-20.7-9.5-39.8-26-52.4c-1.8-1.4-3.1-3.2-3.7-5.4c-9.5-32.9-40.2-55.9-74.5-55.9c-6.3,0-12.6,0.8-18.7,2.3
		c-4.2,1-8.6-0.6-11.1-4.2c-16-23.3-42.4-37.2-70.6-37.2c-21.4,0-42,8-57.8,22.4c-15.7,14.4-25.5,33.9-27.5,55
		c-0.3,3.6-2.6,6.8-5.9,8.4c-1,0.5-2.1,1-3.1,1.6c-0.9,0.5-1.8,0.8-2.8,1.1c-14.5,3.2-27.6,11.4-37,22.9
		C70.1,243.5,65,257.9,65,273.1c0,36.4,29.7,65.9,66.3,65.9h96.5l5.4-21.5H170.9z"/>
	<polygon id="XMLID_40_" class="st1" points="241.7,273.3 275.8,181.1 217.3,181.1 170.9,317.6 233.1,317.6 227.8,339.1 
		222.5,359.9 202,441.7 255.7,359.9 269.3,339.1 312.4,273.3 	"/>
</g>
</svg>
