<?xml version="1.0" encoding="utf-8"?>
<!-- Generator: Adobe Illustrator 21.0.2, SVG Export Plug-In . SVG Version: 6.00 Build 0)  -->
<svg version="1.1" id="Layer_1" xmlns="http://www.w3.org/2000/svg" xmlns:xlink="http://www.w3.org/1999/xlink" x="0px" y="0px"
	 viewBox="0 0 500 500" style="enable-background:new 0 0 500 500;" xml:space="preserve">
<style type="text/css">
	.st0{fill:#44C2E4;}
	.st1{fill:#E6C705;}
	.st2{fill:#E7C229;}
	.st3{fill:#3591A6;}
</style>
<g id="XMLID_1_">
	<path id="XMLID_75_" class="st0" d="M403.2,185.6c-1.8-1.4-3.1-3.2-3.7-5.4c-9.5-32.9-40.2-55.9-74.5-55.9
		c-6.3,0-12.6,0.8-18.7,2.3c-4.2,1-8.6-0.6-11.1-4.2c-16-23.3-42.4-37.2-70.6-37.2c-21.4,0-42,8-57.8,22.4
		c-15.7,14.4-25.5,33.9-27.5,55c-0.3,3.6-2.6,6.8-5.9,8.4c-1,0.5-2.1,1-3.1,1.6c-0.9,0.5-1.8,0.8-2.8,1.1
		c-14.5,3.2-27.6,11.4-37,22.9c-9.6,11.8-14.7,26.2-14.7,41.5c0,36.4,29.7,65.9,66.3,65.9h220.7c36.6,0,66.3-29.6,66.3-65.9
		C429.2,217.3,419.7,198.2,403.2,185.6z"/>
	<path id="XMLID_10_" class="st0" d="M135.2,347.3c-5.1,0-9.3,4.2-9.3,9.3V371l-15.2-4.1c-5-1.3-10.1,1.6-11.4,6.5
		c-1.3,5,1.6,10.1,6.5,11.4l14.7,4l-8.9,13.7c-2.8,4.3-1.6,10.1,2.7,12.9c1.6,1,3.3,1.5,5.1,1.5c3,0,6-1.5,7.8-4.2l8.1-12.5
		l8.8,13.1c1.8,2.7,4.7,4.1,7.7,4.1c1.8,0,3.6-0.5,5.2-1.6c4.3-2.9,5.4-8.6,2.5-12.9l-9.4-14l14.4-3.9c5-1.3,7.9-6.5,6.5-11.4
		c-1.3-5-6.4-7.9-11.4-6.5l-15.2,4.1v-14.3C144.5,351.5,140.3,347.3,135.2,347.3z"/>
	<path id="XMLID_9_" class="st0" d="M252.5,347.3c-5.1,0-9.3,4.2-9.3,9.3V371l-15.2-4.1c-5-1.3-10.1,1.6-11.4,6.5
		c-1.3,5,1.6,10.1,6.5,11.4l14.7,4l-8.9,13.7c-2.8,4.3-1.6,10.1,2.7,12.9c1.6,1,3.3,1.5,5.1,1.5c3,0,6-1.5,7.8-4.2l8.1-12.5
		l8.8,13.1c1.8,2.7,4.7,4.1,7.7,4.1c1.8,0,3.6-0.5,5.2-1.6c4.3-2.9,5.4-8.6,2.5-12.9l-9.4-14l14.4-3.9c5-1.3,7.9-6.5,6.5-11.4
		c-1.3-5-6.4-7.9-11.4-6.5l-15.2,4.1v-14.3C261.8,351.5,257.7,347.3,252.5,347.3z"/>
	<path id="XMLID_8_" class="st0" d="M369.9,347.3c-5.1,0-9.3,4.2-9.3,9.3V371l-15.2-4.1c-5-1.3-10.1,1.6-11.4,6.5
		c-1.3,5,1.6,10.1,6.5,11.4l14.7,4l-8.9,13.7c-2.8,4.3-1.6,10.1,2.7,12.9c1.6,1,3.3,1.5,5.1,1.5c3,0,6-1.5,7.8-4.2L370,400l8.8,13.1
		c1.8,2.7,4.7,4.1,7.7,4.1c1.8,0,3.6-0.5,5.2-1.6c4.3-2.9,5.4-8.6,2.5-12.9l-9.4-14l14.4-3.9c5-1.3,7.9-6.5,6.5-11.4
		c-1.3-5-6.4-7.9-11.4-6.5l-15.2,4.1v-14.3C379.2,351.5,375,347.3,369.9,347.3z"/>
</g>
</svg>
